<?xml version="1.0" standalone="no"?>
<!DOCTYPE svg PUBLIC "-//W3C//DTD SVG 20010904//EN"
 "http://www.w3.org/TR/2001/REC-SVG-20010904/DTD/svg10.dtd">
<svg version="1.0" xmlns="http://www.w3.org/2000/svg"
 width="276.000000pt" height="300.000000pt" viewBox="0 0 276.000000 300.000000"
 preserveAspectRatio="xMidYMid meet">
<metadata>
Created by potrace 1.10, written by Peter Selinger 2001-2011
</metadata>
<g transform="translate(0.000000,300.000000) scale(0.100000,-0.100000)"
fill="#000000" stroke="none">
<path d="M1120 2759 c-81 -11 -275 -28 -442 -38 -77 -5 -134 -13 -143 -21 -13
-11 -15 -139 -15 -1115 0 -1046 1 -1103 18 -1118 22 -20 132 -77 150 -77 6 0
12 -4 12 -10 0 -5 6 -10 14 -10 7 0 34 -12 60 -26 39 -22 55 -25 104 -21 31 3
122 10 202 16 80 7 167 15 194 19 l48 7 -1 225 c-1 124 -4 239 -7 256 -6 35 7
51 25 30 6 -7 35 -60 65 -117 71 -140 105 -200 125 -223 9 -10 54 -36 101 -58
105 -49 104 -49 164 -82 45 -25 53 -27 92 -17 24 6 80 11 126 11 46 0 103 5
126 10 24 6 91 12 149 14 57 2 107 6 110 9 3 3 -5 21 -18 39 -23 32 -48 76
-85 148 -10 19 -20 37 -23 40 -4 3 -11 14 -17 25 -6 11 -26 47 -44 80 -19 33
-47 85 -62 115 -16 30 -33 59 -37 65 -5 5 -23 37 -41 70 -18 33 -42 76 -53 95
-29 50 -68 120 -84 153 -8 15 -19 27 -24 27 -26 0 -1 33 66 85 41 32 93 81
115 109 40 49 100 164 100 191 0 8 4 16 9 19 10 6 16 41 31 176 11 92 3 297
-11 306 -5 3 -9 15 -9 28 0 12 -11 46 -25 74 -14 29 -25 56 -25 62 0 5 -4 10
-10 10 -5 0 -10 6 -10 13 0 7 -29 49 -64 94 -61 76 -182 175 -256 209 -107 49
-143 64 -155 64 -9 0 -23 4 -33 9 -9 5 -47 16 -84 25 -73 18 -311 20 -428 5z
m387 -38 c136 -25 269 -128 337 -260 34 -66 36 -71 36 -89 0 -10 4 -22 10 -28
30 -30 43 -265 22 -386 -11 -61 -42 -161 -61 -198 -65 -124 -120 -187 -217
-251 -35 -23 -64 -43 -64 -46 0 -5 49 -94 60 -108 4 -5 22 -37 40 -70 59 -107
72 -130 80 -140 4 -5 25 -44 47 -85 22 -41 55 -100 72 -130 18 -30 35 -63 38
-73 3 -9 9 -17 13 -17 4 0 10 -8 13 -17 3 -10 22 -45 42 -78 20 -33 41 -72 48
-87 6 -16 15 -28 19 -28 4 0 8 -11 8 -25 0 -25 -1 -25 -82 -25 -46 0 -110 -4
-143 -9 -121 -19 -261 -23 -272 -9 -11 14 -42 69 -103 183 -57 107 -81 149
-94 165 -7 8 -25 40 -41 70 -16 30 -42 78 -57 105 -16 28 -32 58 -35 68 -3 9
-9 17 -14 17 -5 0 -9 7 -9 15 0 9 -11 33 -25 55 -14 22 -25 44 -25 49 0 23
-31 32 -84 26 l-56 -7 0 -388 0 -388 -57 -5 c-32 -3 -123 -10 -203 -16 -80 -6
-154 -12 -165 -14 -20 -2 -20 5 -23 1084 l-2 1086 62 7 c35 4 108 11 163 15
231 19 384 33 440 41 69 10 206 5 282 -9z m316 -114 c93 -50 154 -100 217
-174 66 -78 133 -223 150 -323 21 -133 -4 -381 -47 -465 -6 -11 -23 -44 -38
-74 -15 -30 -32 -60 -38 -67 -7 -6 -19 -20 -28 -30 -17 -21 -114 -105 -134
-116 -7 -4 -18 -21 -25 -37 -11 -27 -8 -37 41 -128 29 -54 55 -100 58 -103 3
-3 19 -32 36 -65 16 -33 39 -73 50 -90 12 -16 33 -55 49 -85 15 -30 41 -77 58
-105 65 -106 153 -274 147 -280 -5 -5 -280 -34 -399 -42 -70 -4 -80 -3 -143
29 -106 52 -107 52 -107 59 0 4 44 10 98 13 201 14 276 26 294 49 10 12 18 30
18 41 0 19 -44 105 -124 239 -25 43 -46 80 -46 82 0 2 -28 52 -61 112 -34 59
-75 133 -92 163 -64 120 -91 166 -108 192 -28 38 -24 52 24 84 126 84 218 230
268 423 24 93 27 303 4 376 -8 27 -12 52 -9 57 3 5 -1 17 -9 26 -8 9 -17 31
-21 47 -8 33 -89 168 -118 197 -24 24 -16 23 35 -5z m-717 -1335 c6 -4 35 -52
64 -107 29 -55 56 -104 60 -110 27 -36 79 -149 73 -158 -5 -7 -10 -120 -13
-252 l-5 -239 -41 -7 c-58 -10 -309 -31 -374 -31 -54 0 -80 9 -180 62 l-45 24
65 11 c36 6 110 12 164 13 110 3 151 18 166 58 6 14 10 178 10 378 0 194 3
356 7 359 8 9 35 9 49 -1z"/>
<path d="M1073 2293 c-40 -3 -63 -8 -63 -16 -2 -45 1 -562 3 -564 2 -1 55 4
119 11 160 19 239 56 291 138 9 15 17 36 17 47 0 11 5 23 10 26 6 3 10 48 10
99 0 134 -36 208 -122 249 -36 17 -96 19 -265 10z m250 -48 c62 -26 89 -85 40
-85 -16 0 -37 -7 -48 -16 -18 -13 -20 -30 -25 -181 l-5 -167 -60 -18 c-59 -18
-183 -22 -177 -5 1 4 2 112 2 241 l0 235 38 4 c95 10 201 6 235 -8z m100 -124
c11 -2 8 -120 -4 -160 -20 -66 -60 -139 -79 -144 -11 -3 -20 -1 -22 4 -2 5 -2
76 0 158 l3 150 47 -3 c26 -2 50 -4 55 -5z"/>
</g>
</svg>
